<?xml version="1.0" encoding="UTF-8"?> <svg xmlns="http://www.w3.org/2000/svg" width="187.5" viewBox="0 0 187.5 30" height="30" version="1.0"><defs><clipPath id="a"><path d="M 168 11 L 184.234375 11 L 184.234375 29 L 168 29 Z M 168 11"></path></clipPath></defs><g fill="#000"><g><g><path d="M 6.828125 -26.015625 C 7.210938 -25.628906 7.40625 -25.160156 7.40625 -24.609375 C 7.40625 -24.066406 7.210938 -23.601562 6.828125 -23.21875 C 6.441406 -22.832031 5.972656 -22.640625 5.421875 -22.640625 C 4.878906 -22.640625 4.414062 -22.832031 4.03125 -23.21875 C 3.644531 -23.601562 3.453125 -24.066406 3.453125 -24.609375 C 3.453125 -25.160156 3.644531 -25.628906 4.03125 -26.015625 C 4.414062 -26.398438 4.878906 -26.59375 5.421875 -26.59375 C 5.972656 -26.59375 6.441406 -26.398438 6.828125 -26.015625 Z M 1.046875 -15.953125 L 7.109375 -15.953125 L 7.109375 -0.515625 L 9.96875 -0.515625 L 9.96875 0 L 1.046875 0 L 1.046875 -0.515625 L 3.90625 -0.515625 L 3.90625 -15.4375 L 1.046875 -15.4375 Z M 1.046875 -15.953125" transform="translate(2.265 28.156)"></path></g></g></g><g fill="#000"><g><g><path d="M 18.921875 -11.453125 L 18.921875 -0.515625 L 21.796875 -0.515625 L 21.796875 0 L 12.859375 0 L 12.859375 -0.515625 L 15.734375 -0.515625 L 15.734375 -12.640625 C 15.734375 -13.585938 15.492188 -14.359375 15.015625 -14.953125 C 14.546875 -15.546875 13.84375 -15.84375 12.90625 -15.84375 C 11.269531 -15.84375 9.875 -15.171875 8.71875 -13.828125 C 7.5625 -12.492188 6.984375 -10.910156 6.984375 -9.078125 L 6.984375 -0.515625 L 9.859375 -0.515625 L 9.859375 0 L 0.9375 0 L 0.9375 -0.515625 L 3.796875 -0.515625 L 3.796875 -15.4375 L 0.9375 -15.4375 L 0.9375 -15.953125 L 6.921875 -15.953125 L 6.921875 -11.96875 L 6.984375 -11.96875 C 8.304688 -14.894531 10.441406 -16.359375 13.390625 -16.359375 C 15.117188 -16.359375 16.472656 -15.9375 17.453125 -15.09375 C 18.429688 -14.25 18.921875 -13.035156 18.921875 -11.453125 Z M 18.921875 -11.453125" transform="translate(16.47 28.156)"></path></g></g></g><g fill="#000"><g><g><path d="M 6.6875 -21.046875 L 6.6875 -15.953125 L 11.96875 -15.953125 L 11.96875 -15.4375 L 6.6875 -15.4375 L 6.6875 -3.15625 C 6.6875 -1.050781 7.429688 0 8.921875 0 C 9.742188 0 10.429688 -0.296875 10.984375 -0.890625 C 11.546875 -1.484375 11.898438 -2.226562 12.046875 -3.125 L 12.5625 -2.9375 C 12.039062 -0.632812 10.664062 0.515625 8.4375 0.515625 C 5.144531 0.515625 3.5 -0.832031 3.5 -3.53125 L 3.5 -15.4375 L 0.625 -15.4375 L 0.625 -15.953125 L 3.5 -15.953125 L 3.5 -20.75 C 3.945312 -20.570312 4.414062 -20.484375 4.90625 -20.484375 C 5.65625 -20.484375 6.25 -20.671875 6.6875 -21.046875 Z M 6.6875 -21.046875" transform="translate(42.387 28.156)"></path></g></g></g><g fill="#000"><g><g><path d="M 16.890625 -9.21875 L 5.421875 -9.21875 C 5.398438 -8.675781 5.390625 -7.921875 5.390625 -6.953125 C 5.390625 -2.316406 7.023438 0 10.296875 0 C 13.296875 0 15.207031 -1.398438 16.03125 -4.203125 L 16.578125 -4.09375 C 15.742188 -1.019531 13.640625 0.515625 10.265625 0.515625 C 7.734375 0.515625 5.664062 -0.253906 4.0625 -1.796875 C 2.46875 -3.347656 1.671875 -5.378906 1.671875 -7.890625 C 1.671875 -10.140625 2.488281 -12.125 4.125 -13.84375 C 5.757812 -15.570312 7.707031 -16.4375 9.96875 -16.4375 C 11.875 -16.4375 13.503906 -15.800781 14.859375 -14.53125 C 16.210938 -13.269531 16.890625 -11.5 16.890625 -9.21875 Z M 5.46875 -9.75 L 13.09375 -9.75 C 13.144531 -10.539062 13.171875 -11.144531 13.171875 -11.5625 C 13.171875 -14.46875 12.113281 -15.921875 10 -15.921875 C 8.488281 -15.921875 7.390625 -15.40625 6.703125 -14.375 C 6.023438 -13.34375 5.613281 -11.800781 5.46875 -9.75 Z M 5.46875 -9.75" transform="translate(57.967 28.156)"></path></g></g></g><g fill="#000"><g><g><path d="M 1.046875 -26.8125 L 7.109375 -26.8125 L 7.109375 -0.515625 L 9.96875 -0.515625 L 9.96875 0 L 1.046875 0 L 1.046875 -0.515625 L 3.90625 -0.515625 L 3.90625 -26.296875 L 1.046875 -26.296875 Z M 1.046875 -26.8125" transform="translate(79.757 28.156)"></path></g></g></g><g fill="#000"><g><g><path d="M 1.046875 -26.8125 L 7.109375 -26.8125 L 7.109375 -0.515625 L 9.96875 -0.515625 L 9.96875 0 L 1.046875 0 L 1.046875 -0.515625 L 3.90625 -0.515625 L 3.90625 -26.296875 L 1.046875 -26.296875 Z M 1.046875 -26.8125" transform="translate(93.962 28.156)"></path></g></g></g><g fill="#000"><g><g><path d="M 16.890625 -9.21875 L 5.421875 -9.21875 C 5.398438 -8.675781 5.390625 -7.921875 5.390625 -6.953125 C 5.390625 -2.316406 7.023438 0 10.296875 0 C 13.296875 0 15.207031 -1.398438 16.03125 -4.203125 L 16.578125 -4.09375 C 15.742188 -1.019531 13.640625 0.515625 10.265625 0.515625 C 7.734375 0.515625 5.664062 -0.253906 4.0625 -1.796875 C 2.46875 -3.347656 1.671875 -5.378906 1.671875 -7.890625 C 1.671875 -10.140625 2.488281 -12.125 4.125 -13.84375 C 5.757812 -15.570312 7.707031 -16.4375 9.96875 -16.4375 C 11.875 -16.4375 13.503906 -15.800781 14.859375 -14.53125 C 16.210938 -13.269531 16.890625 -11.5 16.890625 -9.21875 Z M 5.46875 -9.75 L 13.09375 -9.75 C 13.144531 -10.539062 13.171875 -11.144531 13.171875 -11.5625 C 13.171875 -14.46875 12.113281 -15.921875 10 -15.921875 C 8.488281 -15.921875 7.390625 -15.40625 6.703125 -14.375 C 6.023438 -13.34375 5.613281 -11.800781 5.46875 -9.75 Z M 5.46875 -9.75" transform="translate(108.166 28.156)"></path></g></g></g><g fill="#000"><g><g><path d="M 16.359375 -12.203125 C 16.359375 -11.679688 16.1875 -11.25 15.84375 -10.90625 C 15.5 -10.570312 15.023438 -10.40625 14.421875 -10.40625 C 13.929688 -10.40625 13.507812 -10.503906 13.15625 -10.703125 C 12.8125 -10.898438 12.640625 -11.210938 12.640625 -11.640625 C 12.640625 -11.890625 12.726562 -12.316406 12.90625 -12.921875 C 13.082031 -13.523438 13.171875 -13.925781 13.171875 -14.125 C 13.171875 -14.695312 12.890625 -15.140625 12.328125 -15.453125 C 11.765625 -15.765625 11.050781 -15.921875 10.1875 -15.921875 C 8.53125 -15.921875 7.316406 -15.28125 6.546875 -14 C 5.773438 -12.726562 5.390625 -10.566406 5.390625 -7.515625 C 5.390625 -2.503906 7.023438 0 10.296875 0 C 13.296875 0 15.207031 -1.398438 16.03125 -4.203125 L 16.578125 -4.09375 C 15.742188 -1.019531 13.648438 0.515625 10.296875 0.515625 C 7.890625 0.515625 5.847656 -0.207031 4.171875 -1.65625 C 2.503906 -3.101562 1.671875 -5.179688 1.671875 -7.890625 C 1.671875 -10.285156 2.503906 -12.304688 4.171875 -13.953125 C 5.847656 -15.609375 7.890625 -16.4375 10.296875 -16.4375 C 12.035156 -16.4375 13.476562 -16.050781 14.625 -15.28125 C 15.78125 -14.507812 16.359375 -13.484375 16.359375 -12.203125 Z M 16.359375 -12.203125" transform="translate(129.956 28.156)"></path></g></g></g><g fill="#000"><g><g><path d="M 6.6875 -21.046875 L 6.6875 -15.953125 L 11.96875 -15.953125 L 11.96875 -15.4375 L 6.6875 -15.4375 L 6.6875 -3.15625 C 6.6875 -1.050781 7.429688 0 8.921875 0 C 9.742188 0 10.429688 -0.296875 10.984375 -0.890625 C 11.546875 -1.484375 11.898438 -2.226562 12.046875 -3.125 L 12.5625 -2.9375 C 12.039062 -0.632812 10.664062 0.515625 8.4375 0.515625 C 5.144531 0.515625 3.5 -0.832031 3.5 -3.53125 L 3.5 -15.4375 L 0.625 -15.4375 L 0.625 -15.953125 L 3.5 -15.953125 L 3.5 -20.75 C 3.945312 -20.570312 4.414062 -20.484375 4.90625 -20.484375 C 5.65625 -20.484375 6.25 -20.671875 6.6875 -21.046875 Z M 6.6875 -21.046875" transform="translate(151.04 28.156)"></path></g></g></g><g clip-path="url(#a)"><g fill="#000"><g><g><path d="M 14.46875 -11.375 L 14.46875 -1.96875 C 14.46875 -0.800781 14.898438 -0.21875 15.765625 -0.21875 C 16.304688 -0.21875 16.878906 -0.414062 17.484375 -0.8125 L 17.78125 -0.40625 C 16.957031 0.207031 16.023438 0.515625 14.984375 0.515625 C 13.890625 0.515625 13.054688 0.28125 12.484375 -0.1875 C 11.921875 -0.65625 11.53125 -1.382812 11.3125 -2.375 L 11.234375 -2.375 C 10.515625 -0.445312 8.878906 0.515625 6.328125 0.515625 C 3.128906 0.515625 1.53125 -0.6875 1.53125 -3.09375 C 1.53125 -4.082031 1.828125 -4.9375 2.421875 -5.65625 C 2.941406 -6.269531 4.253906 -6.890625 6.359375 -7.515625 C 8.535156 -8.128906 9.882812 -8.648438 10.40625 -9.078125 C 10.757812 -9.367188 11.007812 -9.710938 11.15625 -10.109375 C 11.300781 -10.503906 11.375 -11.164062 11.375 -12.09375 C 11.375 -13.5 11.160156 -14.488281 10.734375 -15.0625 C 10.316406 -15.632812 9.578125 -15.921875 8.515625 -15.921875 C 6.628906 -15.921875 5.6875 -15.300781 5.6875 -14.0625 C 5.6875 -13.757812 5.722656 -13.351562 5.796875 -12.84375 C 5.867188 -12.34375 5.90625 -12.039062 5.90625 -11.9375 C 5.90625 -11.59375 5.773438 -11.300781 5.515625 -11.0625 C 5.253906 -10.820312 4.890625 -10.703125 4.421875 -10.703125 C 3.734375 -10.703125 3.265625 -10.828125 3.015625 -11.078125 C 2.765625 -11.328125 2.640625 -11.738281 2.640625 -12.3125 C 2.640625 -13.5 3.164062 -14.484375 4.21875 -15.265625 C 5.269531 -16.046875 6.675781 -16.4375 8.4375 -16.4375 C 10.425781 -16.4375 11.925781 -15.984375 12.9375 -15.078125 C 13.957031 -14.171875 14.46875 -12.9375 14.46875 -11.375 Z M 7.46875 -0.21875 C 8.707031 -0.21875 9.648438 -0.664062 10.296875 -1.5625 C 10.941406 -2.457031 11.265625 -3.695312 11.265625 -5.28125 L 11.265625 -9.109375 L 11.1875 -9.109375 C 11.164062 -9.015625 11.125 -8.921875 11.0625 -8.828125 C 11 -8.742188 10.894531 -8.65625 10.75 -8.5625 C 10.601562 -8.476562 10.457031 -8.398438 10.3125 -8.328125 C 10.175781 -8.253906 9.976562 -8.160156 9.71875 -8.046875 C 9.457031 -7.941406 9.234375 -7.847656 9.046875 -7.765625 C 8.867188 -7.691406 8.59375 -7.582031 8.21875 -7.4375 C 7.84375 -7.289062 7.53125 -7.164062 7.28125 -7.0625 C 5.570312 -6.375 4.71875 -5.1875 4.71875 -3.5 C 4.71875 -1.3125 5.632812 -0.21875 7.46875 -0.21875 Z M 7.46875 -0.21875" transform="translate(166.62 28.156)"></path></g></g></g></g></svg> 