<svg width="40" height="40" viewBox="0 0 40 40" fill="none" xmlns="http://www.w3.org/2000/svg">
<path d="M15 19.9997H12.5V17.4997H15V19.9997ZM25 19.9997H22.5V17.4997H25V19.9997ZM35 17.4997V22.4997H32.5V28.7497C32.5 29.2705 32.4023 29.7588 32.207 30.2145C32.0117 30.6702 31.7448 31.0674 31.4062 31.4059C31.0677 31.7445 30.6706 32.0114 30.2148 32.2067C29.7591 32.402 29.2708 32.4997 28.75 32.4997H23.5938L15 39.8434V32.4997H8.75C8.22917 32.4997 7.74089 32.402 7.28516 32.2067C6.82943 32.0114 6.43229 31.7445 6.09375 31.4059C5.75521 31.0674 5.48828 30.6702 5.29297 30.2145C5.09766 29.7588 5 29.2705 5 28.7497V22.4997H2.5V17.4997H5V13.7497C5 13.2288 5.09766 12.7406 5.29297 12.2848C5.48828 11.8291 5.75521 11.432 6.09375 11.0934C6.43229 10.7549 6.82943 10.488 7.28516 10.2926C7.74089 10.0973 8.22917 9.99967 8.75 9.99967H17.5V5.91764C17.1224 5.69629 16.8229 5.3903 16.6016 4.99967C16.3802 4.60905 16.263 4.19238 16.25 3.74967C16.25 3.39811 16.3151 3.07259 16.4453 2.77311C16.5755 2.47363 16.7513 2.21322 16.9727 1.99186C17.194 1.77051 17.4609 1.58822 17.7734 1.44499C18.0859 1.30176 18.4115 1.23665 18.75 1.24967C19.1016 1.24967 19.4271 1.31478 19.7266 1.44499C20.026 1.5752 20.2865 1.75098 20.5078 1.97233C20.7292 2.19368 20.9115 2.46061 21.0547 2.77311C21.1979 3.08561 21.263 3.41113 21.25 3.74967C21.25 4.19238 21.1393 4.60905 20.918 4.99967C20.6966 5.3903 20.3906 5.69629 20 5.91764V9.99967H28.75C29.2708 9.99967 29.7591 10.0973 30.2148 10.2926C30.6706 10.488 31.0677 10.7549 31.4062 11.0934C31.7448 11.432 32.0117 11.8291 32.207 12.2848C32.4023 12.7406 32.5 13.2288 32.5 13.7497V17.4997H35ZM30 13.7497C30 13.4111 29.8763 13.1182 29.6289 12.8708C29.3815 12.6234 29.0885 12.4997 28.75 12.4997H8.75C8.41146 12.4997 8.11849 12.6234 7.87109 12.8708C7.6237 13.1182 7.5 13.4111 7.5 13.7497V28.7497C7.5 29.0882 7.6237 29.3812 7.87109 29.6286C8.11849 29.876 8.41146 29.9997 8.75 29.9997H17.5V34.4137L22.6562 29.9997H28.75C29.0885 29.9997 29.3815 29.876 29.6289 29.6286C29.8763 29.3812 30 29.0882 30 28.7497V13.7497ZM13.3789 22.7731C14.0951 23.4893 14.9154 24.0361 15.8398 24.4137C16.7643 24.7913 17.7344 24.9867 18.75 24.9997C19.7656 24.9997 20.7357 24.8109 21.6602 24.4333C22.5846 24.0557 23.4049 23.5023 24.1211 22.7731L25.8789 24.5505C24.9284 25.501 23.8411 26.2301 22.6172 26.738C21.3932 27.2458 20.1042 27.4997 18.75 27.4997C17.4089 27.4997 16.1263 27.2458 14.9023 26.738C13.6784 26.2301 12.5846 25.501 11.6211 24.5505L13.3789 22.7731Z" fill="#EE2982"/>
</svg>
