<svg width="20" height="20" viewBox="0 0 20 20" fill="none" xmlns="http://www.w3.org/2000/svg">
  <path d="M14.1667 1.66667H5.83333C3.5 1.66667 1.66667 3.5 1.66667 5.83333V14.1667C1.66667 16.5 3.5 18.3333 5.83333 18.3333H14.1667C16.5 18.3333 18.3333 16.5 18.3333 14.1667V5.83333C18.3333 3.5 16.5 1.66667 14.1667 1.66667ZM16.6667 14.1667C16.6667 15.5 15.5 16.6667 14.1667 16.6667H5.83333C4.5 16.6667 3.33333 15.5 3.33333 14.1667V5.83333C3.33333 4.5 4.5 3.33333 5.83333 3.33333H14.1667C15.5 3.33333 16.6667 4.5 16.6667 5.83333V14.1667Z" fill="currentColor"/>
  <path d="M10 6.66667C8.16667 6.66667 6.66667 8.16667 6.66667 10C6.66667 11.8333 8.16667 13.3333 10 13.3333C11.8333 13.3333 13.3333 11.8333 13.3333 10C13.3333 8.16667 11.8333 6.66667 10 6.66667ZM10 11.6667C9.08333 11.6667 8.33333 10.9167 8.33333 10C8.33333 9.08333 9.08333 8.33333 10 8.33333C10.9167 8.33333 11.6667 9.08333 11.6667 10C11.6667 10.9167 10.9167 11.6667 10 11.6667Z" fill="currentColor"/>
  <path d="M15.4167 6.25C15.9167 6.25 16.25 5.91667 16.25 5.41667C16.25 4.91667 15.9167 4.58333 15.4167 4.58333C14.9167 4.58333 14.5833 4.91667 14.5833 5.41667C14.5833 5.91667 14.9167 6.25 15.4167 6.25Z" fill="currentColor"/>
</svg> 