<svg width="11" height="15" viewBox="0 0 11 15" fill="none" xmlns="http://www.w3.org/2000/svg">
<path d="M11 5.25C11 4.56056 10.8577 3.87787 10.5813 3.24091C10.3049 2.60395 9.89981 2.0252 9.38909 1.53769C8.87836 1.05018 8.27205 0.66347 7.60476 0.399632C6.93747 0.135795 6.22227 0 5.5 0C4.77773 0 4.06253 0.135795 3.39524 0.399632C2.72795 0.66347 2.12163 1.05018 1.61091 1.53769C1.10019 2.0252 0.695063 2.60395 0.418662 3.24091C0.142262 3.87787 -1.07627e-08 4.56056 0 5.25C0 6.29025 0.321357 7.25775 0.868214 8.07375H0.861929L5.5 15L10.1381 8.07375H10.1326C10.699 7.2312 11.0001 6.25112 11 5.25ZM5.5 7.5C4.87485 7.5 4.2753 7.26295 3.83325 6.84099C3.3912 6.41903 3.14286 5.84674 3.14286 5.25C3.14286 4.65326 3.3912 4.08097 3.83325 3.65901C4.2753 3.23705 4.87485 3 5.5 3C6.12515 3 6.7247 3.23705 7.16675 3.65901C7.6088 4.08097 7.85714 4.65326 7.85714 5.25C7.85714 5.84674 7.6088 6.41903 7.16675 6.84099C6.7247 7.26295 6.12515 7.5 5.5 7.5Z" fill="#515151"/>
</svg>
